# xmcd
#
# Track frame offsets:
#	150
#	15444
#	29636
#	39245
#	52982
#	72981
#	85229
#	95402
#	107231
#	121104
#	131714
#	144448
#	152372
#	164297
#	175865
#	188155
#	202139
#	213113
#	222590
#	238359
#
# Disc length: 3326 seconds
#
# Revision: 1
# Processed by: cddbd v1.5.2PL0 Copyright (c) Steve Scherf et al.
# Submitted via: audiograbber 1.83.01
#
DISCID=1a0cfc14
DTITLE=Various Artist - Roland Storm and Friends
DYEAR=1900
DGENRE=Country
TTITLE0=Roland Storm - Brandy
TTITLE1=Nevin McLean - Mr. Lonely
TTITLE2=Roland Storm - Foxy Lady
TTITLE3=Lucky Starr - Bird Dog
TTITLE4=Roland Storm - Neon Moon
TTITLE5=Mark Jackson and Don North - That's Alright Mama
TTITLE6=Roland Storm - Story Of My Life
TTITLE7=Laurel Lea - Tan Shoes and Pink Shoelaces
TTITLE8=Roland Storm - Blackboard Of My Heart
TTITLE9=Ralph P. White - Tennessee Waltz
TTITLE10=Roland Storm - I Love You Because
TTITLE11=Carter Edwards - On The Road Again
TTITLE12=Roland Storm - Walking After Midnight
TTITLE13=Brad Fury - Boogie Woogie Country Girl
TTITLE14=Roland Storm - Mess Of Blues
TTITLE15=Andrew Mulroe - Johnny Guitar
TTITLE16=Roland Storm - A Fool Such As I
TTITLE17=Dennis Knight - If I Had A Girl
TTITLE18=Roland Storm - Running Bear
TTITLE19=John Caldwell - Teddy Bear's Picnic
EXTD=
EXTT0=
EXTT1=
EXTT2=
EXTT3=
EXTT4=
EXTT5=
EXTT6=
EXTT7=
EXTT8=
EXTT9=
EXTT10=
EXTT11=
EXTT12=
EXTT13=
EXTT14=
EXTT15=
EXTT16=
EXTT17=
EXTT18=
EXTT19=
PLAYORDER=
